<svg width="16" height="16" viewBox="0 0 16 16" fill="none" xmlns="http://www.w3.org/2000/svg">
<path d="M7.33392 6.66669H8.66725V10H7.33392V6.66669ZM7.33325 10.6667H8.66659V12H7.33325V10.6667Z" fill="#E19E0C"/>
<path d="M9.17855 2.79998C8.94655 2.36331 8.49455 2.09198 7.99988 2.09198C7.50522 2.09198 7.05322 2.36331 6.82122 2.80065L1.92922 12.0426C1.82066 12.2456 1.76689 12.4733 1.7732 12.7034C1.77952 12.9335 1.8457 13.158 1.96522 13.3546C2.08302 13.5522 2.25031 13.7157 2.45058 13.8289C2.65086 13.942 2.87718 14.001 3.10722 14H12.8926C13.3646 14 13.7919 13.7586 14.0352 13.3546C14.1545 13.1579 14.2206 12.9334 14.2269 12.7034C14.2332 12.4734 14.1796 12.2457 14.0712 12.0426L9.17855 2.79998ZM3.10722 12.6666L7.99988 3.42465L12.8959 12.6666H3.10722Z" fill="#E19E0C"/>
</svg>
